<svg xmlns="http://www.w3.org/2000/svg" width="64" height="64" fill="none">
  <circle cx="32" cy="32" r="32" fill="#A50036" />
  <path
    fill="#FFFFFF"
    d="M22.266 44.721c-2.003 0-3.811-.297-5.425-.893-1.602-.606-2.976-1.465-4.12-2.575-1.133-1.121-2.003-2.46-2.61-4.017-.606-1.556-.91-3.29-.91-5.202 0-2.449.493-4.64 1.477-6.575a11.117 11.117 0 0 1 4.31-4.566c1.887-1.11 4.17-1.666 6.849-1.666.778 0 1.55.052 2.317.155.779.103 1.523.24 2.232.412.721.172 1.396.36 2.026.566.63.207 1.196.424 1.7.653l-.481 6.214a22.694 22.694 0 0 0-2.936-1.373c-.904-.355-1.728-.607-2.472-.755-.744-.16-1.402-.24-1.974-.24a6.008 6.008 0 0 0-3.056.84c-.916.538-1.648 1.334-2.197 2.387-.55 1.053-.824 2.363-.824 3.931 0 .973.143 1.894.429 2.764.286.87.715 1.637 1.287 2.3.584.664 1.316 1.19 2.198 1.58.881.39 1.911.59 3.09.6a10.807 10.807 0 0 0 3.125-.498c.56-.17 1.121-.394 1.682-.669a13.058 13.058 0 0 0 1.665-.995l.343 6.163c-.503.206-1.058.4-1.665.584-.607.171-1.242.32-1.905.446-.664.137-1.351.24-2.06.309-.699.08-1.397.12-2.095.12ZM44.056 44.721c-2.576 0-4.647-.395-6.215-1.184-1.557-.802-2.69-1.952-3.4-3.451-.697-1.5-1.047-3.302-1.047-5.408v-1.717c.012-.732.023-1.533.035-2.403.011-.881.017-1.751.017-2.61 0-1.613-.023-3.05-.069-4.308a158.89 158.89 0 0 0-.154-3.898h7.124a117.57 117.57 0 0 0-.171 3.898 160.02 160.02 0 0 0-.052 4.308v6.421c0 1.065.137 1.957.412 2.678.275.721.698 1.27 1.27 1.648.584.367 1.328.555 2.232.567.939-.012 1.688-.2 2.25-.567.572-.377.984-.927 1.235-1.648.252-.72.378-1.613.378-2.678v-6.42c0-1.614-.023-3.05-.069-4.31a157.9 157.9 0 0 0-.154-3.896h7.107a249.09 249.09 0 0 0-.172 3.897 160.02 160.02 0 0 0-.051 4.308c0 .859.006 1.734.017 2.627.011.881.023 1.694.034 2.438.012.732.018 1.299.018 1.7 0 2.117-.378 3.925-1.133 5.424-.744 1.488-1.895 2.627-3.451 3.417-1.557.778-3.554 1.167-5.991 1.167Z"
  />
</svg>
